# xmcd CD database file
#
# Track frame offsets:
#	150
#	16343
#	33837
#	60894
#	85820
#	105862
#	129559
#	153244
#	175218
#	194819
#	210549
#	229583
#
# Disc length: 3366 seconds
#
# Revision: 0
# Processed by: cddbd v1.5.1PL0 Copyright (c) Steve Scherf et al.
# Submitted via: CDex 1.51
#
DISCID=8b0d240c
DTITLE=Carsten Dahl Trio - Blue Train
DYEAR=2005
DGENRE=Jazz
TTITLE0=I'll Close My Eyes
TTITLE1=All The Things You Are
TTITLE2=Night And Day
TTITLE3=In A Sentimental Mood
TTITLE4=Minority
TTITLE5=Mellow Moods
TTITLE6=Autumn Leaves
TTITLE7=What's New
TTITLE8=Warming Up For Mr.Johfu
TTITLE9=Blue Train
TTITLE10=Dear Old Stockholm
TTITLE11=It Could Happen To You
EXTD=YEAR: 2005
EXTT0=
EXTT1=
EXTT2=
EXTT3=
EXTT4=
EXTT5=
EXTT6=
EXTT7=
EXTT8=
EXTT9=
EXTT10=
EXTT11=
PLAYORDER=
